<?xml version="1.0" standalone="no"?>
<!DOCTYPE svg PUBLIC "-//W3C//DTD SVG 20010904//EN"
 "http://www.w3.org/TR/2001/REC-SVG-20010904/DTD/svg10.dtd">
<svg version="1.0" xmlns="http://www.w3.org/2000/svg"
 width="108.000000pt" height="108.000000pt" viewBox="0 0 108.000000 108.000000"
 preserveAspectRatio="xMidYMid meet">
<metadata>
Created by potrace 1.14, written by Peter Selinger 2001-2017
</metadata>
<g transform="translate(0.000000,108.000000) scale(0.100000,-0.100000)"
fill="#000000" stroke="none">
<path d="M10 540 l0 -540 530 0 530 0 0 540 0 540 -530 0 -530 0 0 -540z m790
451 l54 -17 -3 -127 c-1 -71 1 -127 6 -127 5 0 18 7 29 15 40 31 144 9 144
-30 0 -24 -35 -35 -109 -35 l-70 0 -7 -47 c-3 -27 -13 -63 -20 -82 -16 -40
-19 -35 26 -53 l35 -14 -4 -139 c-3 -141 -10 -176 -38 -207 -22 -24 -54 -23
-60 2 -5 17 -14 20 -63 20 -51 0 -58 -3 -68 -25 -15 -33 -60 -44 -79 -20 -7
11 -13 29 -13 41 0 53 -6 53 -110 0 -81 -41 -110 -50 -152 -51 -46 0 -54 3
-65 25 -7 14 -13 55 -13 91 0 65 0 65 -36 82 -19 10 -32 22 -29 27 3 6 52 10
111 10 92 0 104 2 104 18 0 9 3 34 6 55 6 35 5 37 -19 37 -15 0 -42 -7 -61
-16 -33 -16 -36 -16 -77 7 -49 28 -61 49 -28 49 23 0 120 77 145 116 11 17 13
27 5 41 -28 48 -27 48 -76 5 -52 -45 -141 -92 -176 -92 -18 0 -10 11 43 60 67
61 119 132 139 189 13 38 8 47 -18 30 -17 -10 -28 -7 -73 17 -87 47 -79 57 41
49 96 -7 106 -6 131 14 35 28 101 29 121 1 14 -20 14 -20 52 0 39 20 110 26
131 12 30 -20 19 -62 -16 -62 -14 0 -92 -138 -89 -158 1 -4 19 -12 39 -18 21
-6 52 -21 68 -32 58 -42 68 -125 16 -138 -45 -11 -72 11 -105 83 -17 37 -32
69 -34 72 -3 2 -37 -27 -77 -65 -40 -38 -100 -84 -133 -101 l-60 -32 44 -1
c25 0 60 5 78 12 26 9 57 9 138 0 129 -14 145 -21 145 -67 l0 -35 50 0 50 0 0
39 c0 30 -6 44 -25 59 -29 23 -32 32 -9 32 10 0 12 4 7 13 -4 6 -10 102 -13
212 l-5 200 -53 35 c-43 28 -49 36 -35 42 23 9 93 0 163 -21z"/>
<path d="M414 852 c-6 -4 -26 -37 -46 -74 l-35 -67 30 -11 c16 -5 34 -10 38
-10 8 0 60 96 79 146 9 22 7 24 -23 24 -17 0 -37 -4 -43 -8z"/>
<path d="M507 422 c-8 -9 -19 -31 -25 -49 -9 -28 -8 -32 10 -36 11 -3 18 -12
16 -19 -3 -9 -31 -14 -91 -16 l-87 -3 0 -59 c0 -32 4 -61 9 -65 13 -7 85 9
155 36 l56 20 0 99 c0 75 -3 99 -14 103 -8 3 -21 -2 -29 -11z"/>
<path d="M670 270 l0 -80 50 0 50 0 0 80 0 80 -50 0 -50 0 0 -80z"/>
</g>
</svg>
